<svg xmlns="http://www.w3.org/2000/svg" version="1.1" xmlns:xlink="http://www.w3.org/1999/xlink" xmlns:svgjs="http://svgjs.dev/svgjs" width="2000" height="611" viewBox="0 0 2000 611"><g transform="matrix(1,0,0,1,-1.2121212121212466,-0.8775752745857517)"><svg viewBox="0 0 396 121" data-background-color="#ffffff" preserveAspectRatio="xMidYMid meet" height="611" width="2000" xmlns="http://www.w3.org/2000/svg" xmlns:xlink="http://www.w3.org/1999/xlink"><g id="tight-bounds" transform="matrix(1,0,0,1,0.2400000000000091,0.1738763461672761)"><svg viewBox="0 0 395.52 120.65233215100969" height="120.65233215100969" width="395.52"><g><svg viewBox="0 0 613.0273213435869 187.00236648561437" height="120.65233215100969" width="395.52"><g transform="matrix(1,0,0,1,217.50732134358694,67.65784901317556)"><svg viewBox="0 0 395.52 51.68666845926323" height="51.68666845926323" width="395.52"><g id="textblocktransform"><svg viewBox="0 0 395.52 51.68666845926323" height="51.68666845926323" width="395.52" id="textblock"><g><svg viewBox="0 0 395.52 51.68666845926323" height="51.68666845926323" width="395.52"><g transform="matrix(1,0,0,1,0,0)"><svg width="395.52" viewBox="1.88 -33.33 258.23 33.75" height="51.68666845926323" data-palette-color="#89939e"><path d="M13.26 0.42L13.26 0.42Q10 0.42 7.41-1.04 4.83-2.5 3.35-5.02 1.88-7.53 1.88-10.63L1.88-10.63Q1.88-13.58 3.3-15.99 4.72-18.4 7.14-19.83 9.55-21.25 12.47-21.25L12.47-21.25Q15.35-21.25 17.74-19.88 20.14-18.51 21.56-16.18 22.99-13.85 22.99-10.9L22.99-10.9 22.99-9.38 9.38-9.38Q8.47-9.38 7.53-9.44 6.6-9.51 5.69-9.65L5.69-9.65Q6.08-6.88 8.21-5 10.35-3.13 13.3-3.13L13.3-3.13Q15.28-3.13 16.98-4.03 18.68-4.93 19.72-6.42L19.72-6.42 20.76-2.15Q19.27-0.94 17.34-0.26 15.42 0.42 13.26 0.42ZM5.59-12.19L5.59-12.19Q7.47-12.5 9.38-12.5L9.38-12.5 16.28-12.5Q17.05-12.5 17.8-12.45 18.54-12.4 19.31-12.33L19.31-12.33Q18.82-14.76 16.88-16.34 14.93-17.92 12.47-17.92L12.47-17.92Q9.93-17.92 8.02-16.23 6.11-14.55 5.59-12.19ZM37.57 0.42L37.57 0.42Q34.51 0.42 32.01-1.04 29.51-2.5 28.02-4.97 26.53-7.43 26.53-10.42L26.53-10.42Q26.53-13.4 28.02-15.87 29.51-18.33 32.01-19.79 34.51-21.25 37.57-21.25L37.57-21.25Q39.82-21.25 41.8-20.45 43.78-19.65 45.28-18.33L45.28-18.33 44.13-13.61Q43.26-15.35 41.51-16.53 39.75-17.71 37.53-17.71L37.53-17.71Q35.52-17.71 33.87-16.72 32.22-15.73 31.25-14.08 30.28-12.43 30.28-10.42L30.28-10.42Q30.28-8.44 31.25-6.77 32.22-5.1 33.87-4.11 35.52-3.13 37.53-3.13L37.53-3.13Q39.75-3.13 41.51-4.27 43.26-5.42 44.13-7.22L44.13-7.22 45.28-2.5Q43.78-1.18 41.8-0.38 39.82 0.42 37.57 0.42ZM59.44 0.42L59.44 0.42Q56.38 0.42 53.88-1.04 51.38-2.5 49.89-4.97 48.4-7.43 48.4-10.42L48.4-10.42Q48.4-13.4 49.89-15.87 51.38-18.33 53.88-19.79 56.38-21.25 59.44-21.25L59.44-21.25Q61.7-21.25 63.68-20.45 65.65-19.65 67.15-18.33L67.15-18.33 66-13.61Q65.13-15.35 63.38-16.53 61.63-17.71 59.4-17.71L59.4-17.71Q57.39-17.71 55.74-16.72 54.09-15.73 53.12-14.08 52.15-12.43 52.15-10.42L52.15-10.42Q52.15-8.44 53.12-6.77 54.09-5.1 55.74-4.11 57.39-3.13 59.4-3.13L59.4-3.13Q61.63-3.13 63.38-4.27 65.13-5.42 66-7.22L66-7.22 67.15-2.5Q65.65-1.18 63.68-0.38 61.7 0.42 59.44 0.42ZM75.48 0L71.73 0 71.73-33.33 75.48-33.33 75.48 0ZM92.07 0.42L92.07 0.42Q88.81 0.42 86.22-1.04 83.64-2.5 82.16-5.02 80.68-7.53 80.68-10.63L80.68-10.63Q80.68-13.58 82.11-15.99 83.53-18.4 85.94-19.83 88.36-21.25 91.27-21.25L91.27-21.25Q94.16-21.25 96.55-19.88 98.95-18.51 100.37-16.18 101.8-13.85 101.8-10.9L101.8-10.9 101.8-9.38 88.18-9.38Q87.28-9.38 86.34-9.44 85.41-9.51 84.5-9.65L84.5-9.65Q84.89-6.88 87.02-5 89.16-3.13 92.11-3.13L92.11-3.13Q94.09-3.13 95.79-4.03 97.49-4.93 98.53-6.42L98.53-6.42 99.57-2.15Q98.08-0.94 96.15-0.26 94.23 0.42 92.07 0.42ZM84.4-12.19L84.4-12.19Q86.27-12.5 88.18-12.5L88.18-12.5 95.09-12.5Q95.86-12.5 96.6-12.45 97.35-12.4 98.12-12.33L98.12-12.33Q97.63-14.76 95.68-16.34 93.74-17.92 91.27-17.92L91.27-17.92Q88.74-17.92 86.83-16.23 84.92-14.55 84.4-12.19ZM112.18 0.42L112.18 0.42Q110.58 0.42 108.75-0.19 106.93-0.8 105.61-2.22L105.61-2.22 106.65-6.32Q107.63-4.69 109.15-3.73 110.68-2.78 112.42-2.78L112.42-2.78Q114.08-2.78 114.92-3.59 115.75-4.41 115.75-5.59L115.75-5.59Q115.75-6.94 114.87-7.57 113.98-8.19 113.29-8.44L113.29-8.44 110.47-9.51Q109.71-9.83 108.63-10.43 107.56-11.04 106.76-12.19 105.96-13.33 105.96-15.17L105.96-15.17Q105.96-16.84 106.76-18.23 107.56-19.62 109.02-20.43 110.47-21.25 112.45-21.25L112.45-21.25Q114.02-21.25 115.72-20.69 117.42-20.14 118.6-18.82L118.6-18.82 117.56-14.72Q116.72-16.25 115.3-17.15 113.88-18.06 112.35-18.06L112.35-18.06Q110.93-18.06 110.11-17.26 109.29-16.46 109.29-15.42L109.29-15.42Q109.29-14.58 109.85-13.92 110.4-13.26 111.52-12.85L111.52-12.85 114.33-11.77Q115.09-11.49 116.22-10.87 117.35-10.24 118.22-9.06 119.08-7.88 119.08-5.87L119.08-5.87Q119.08-3.06 117.12-1.32 115.16 0.42 112.18 0.42ZM128.25 0L124.5 0 124.5-20.83 128.25-20.83 128.25 0ZM126.37-24.58L126.37-24.58Q125.33-24.58 124.6-25.31 123.87-26.04 123.87-27.08L123.87-27.08Q123.87-28.16 124.6-28.87 125.33-29.58 126.37-29.58L126.37-29.58Q127.45-29.58 128.16-28.87 128.87-28.16 128.87-27.08L128.87-27.08Q128.87-26.04 128.16-25.31 127.45-24.58 126.37-24.58ZM143.84 0.28L143.84 0.28Q140.99 0.28 138.63-1.16 136.27-2.6 134.86-5.03 133.45-7.47 133.45-10.42L133.45-10.42Q133.45-13.37 134.86-15.8 136.27-18.23 138.63-19.67 140.99-21.11 143.84-21.11L143.84-21.11Q145.99-21.11 147.88-20.31 149.77-19.51 151.16-18.09L151.16-18.09 151.16-20.83 154.64-20.83 154.64 0 151.16 0 151.16-2.74Q149.77-1.35 147.88-0.54 145.99 0.28 143.84 0.28ZM144.32-3.13L144.32-3.13Q146.3-3.13 147.92-4.11 149.53-5.1 150.49-6.75 151.44-8.4 151.44-10.42L151.44-10.42Q151.44-12.43 150.49-14.08 149.53-15.73 147.92-16.72 146.3-17.71 144.32-17.71L144.32-17.71Q142.34-17.71 140.73-16.72 139.11-15.73 138.16-14.08 137.2-12.43 137.2-10.42L137.2-10.42Q137.2-8.4 138.16-6.75 139.11-5.1 140.73-4.11 142.34-3.13 144.32-3.13ZM181.64 0.42L181.64 0.42Q178.38 0.42 175.79-1.04 173.21-2.5 171.73-5.02 170.26-7.53 170.26-10.63L170.26-10.63Q170.26-13.58 171.68-15.99 173.1-18.4 175.52-19.83 177.93-21.25 180.85-21.25L180.85-21.25Q183.73-21.25 186.12-19.88 188.52-18.51 189.94-16.18 191.37-13.85 191.37-10.9L191.37-10.9 191.37-9.38 177.76-9.38Q176.85-9.38 175.92-9.44 174.98-9.51 174.07-9.65L174.07-9.65Q174.46-6.88 176.59-5 178.73-3.13 181.68-3.13L181.68-3.13Q183.66-3.13 185.36-4.03 187.06-4.93 188.1-6.42L188.1-6.42 189.14-2.15Q187.65-0.94 185.72-0.26 183.8 0.42 181.64 0.42ZM173.97-12.19L173.97-12.19Q175.85-12.5 177.76-12.5L177.76-12.5 184.67-12.5Q185.43-12.5 186.18-12.45 186.92-12.4 187.69-12.33L187.69-12.33Q187.2-14.76 185.26-16.34 183.31-17.92 180.85-17.92L180.85-17.92Q178.31-17.92 176.4-16.23 174.49-14.55 173.97-12.19ZM205.29 0.28L205.29 0.28Q202.44 0.28 200.08-1.16 197.72-2.6 196.31-5.03 194.91-7.47 194.91-10.42L194.91-10.42Q194.91-13.37 196.31-15.8 197.72-18.23 200.08-19.67 202.44-21.11 205.29-21.11L205.29-21.11Q207.44-21.11 209.33-20.31 211.23-19.51 212.61-18.09L212.61-18.09 212.61-20.83 216.09-20.83 216.09 0 212.61 0 212.61-2.74Q211.23-1.35 209.33-0.54 207.44 0.28 205.29 0.28ZM205.77-3.13L205.77-3.13Q207.75-3.13 209.37-4.11 210.98-5.1 211.94-6.75 212.89-8.4 212.89-10.42L212.89-10.42Q212.89-12.43 211.94-14.08 210.98-15.73 209.37-16.72 207.75-17.71 205.77-17.71L205.77-17.71Q203.79-17.71 202.18-16.72 200.57-15.73 199.61-14.08 198.66-12.43 198.66-10.42L198.66-10.42Q198.66-8.4 199.61-6.75 200.57-5.1 202.18-4.11 203.79-3.13 205.77-3.13ZM228.13 0.42L228.13 0.42Q226.53 0.42 224.71-0.19 222.89-0.8 221.57-2.22L221.57-2.22 222.61-6.32Q223.58-4.69 225.11-3.73 226.64-2.78 228.38-2.78L228.38-2.78Q230.04-2.78 230.88-3.59 231.71-4.41 231.71-5.59L231.71-5.59Q231.71-6.94 230.82-7.57 229.94-8.19 229.24-8.44L229.24-8.44 226.43-9.51Q225.67-9.83 224.59-10.43 223.51-11.04 222.72-12.19 221.92-13.33 221.92-15.17L221.92-15.17Q221.92-16.84 222.72-18.23 223.51-19.62 224.97-20.43 226.43-21.25 228.41-21.25L228.41-21.25Q229.97-21.25 231.67-20.69 233.38-20.14 234.56-18.82L234.56-18.82 233.51-14.72Q232.68-16.25 231.26-17.15 229.83-18.06 228.31-18.06L228.31-18.06Q226.88-18.06 226.07-17.26 225.25-16.46 225.25-15.42L225.25-15.42Q225.25-14.58 225.81-13.92 226.36-13.26 227.47-12.85L227.47-12.85 230.28-11.77Q231.05-11.49 232.18-10.87 233.31-10.24 234.17-9.06 235.04-7.88 235.04-5.87L235.04-5.87Q235.04-3.06 233.08-1.32 231.12 0.42 228.13 0.42ZM250.39 0.42L250.39 0.42Q247.12 0.42 244.54-1.04 241.95-2.5 240.47-5.02 239-7.53 239-10.63L239-10.63Q239-13.58 240.42-15.99 241.85-18.4 244.26-19.83 246.67-21.25 249.59-21.25L249.59-21.25Q252.47-21.25 254.87-19.88 257.26-18.51 258.69-16.18 260.11-13.85 260.11-10.9L260.11-10.9 260.11-9.38 246.5-9.38Q245.6-9.38 244.66-9.44 243.72-9.51 242.82-9.65L242.82-9.65Q243.2-6.88 245.33-5 247.47-3.13 250.42-3.13L250.42-3.13Q252.4-3.13 254.1-4.03 255.8-4.93 256.85-6.42L256.85-6.42 257.89-2.15Q256.39-0.94 254.47-0.26 252.54 0.42 250.39 0.42ZM242.71-12.19L242.71-12.19Q244.59-12.5 246.5-12.5L246.5-12.5 253.41-12.5Q254.17-12.5 254.92-12.45 255.66-12.4 256.43-12.33L256.43-12.33Q255.94-14.76 254-16.34 252.05-17.92 249.59-17.92L249.59-17.92Q247.05-17.92 245.14-16.23 243.23-14.55 242.71-12.19Z" opacity="1" transform="matrix(1,0,0,1,0,0)" fill="#89939e" class="wordmark-text-0" data-fill-palette-color="primary" id="text-0"></path></svg></g></svg></g></svg></g></svg></g><g><svg viewBox="0 0 187.00236648561437 187.00236648561437" height="187.00236648561437" width="187.00236648561437"><g><svg viewBox="0 0 187.00236648561437 187.00236648561437" height="187.00236648561437" width="187.00236648561437"><g transform="matrix(1,0,0,1,54.1914065500247,49.42430276283722)"><svg viewBox="0 0 78.61955338556497 88.15376095993993" height="88.15376095993993" width="78.61955338556497"><g><svg xmlns="http://www.w3.org/2000/svg" xmlns:xlink="http://www.w3.org/1999/xlink" version="1.1" x="0" y="0" viewBox="4.297851399999999 3 21.404297 24" enable-background="new 0 0 30 30" xml:space="preserve" height="88.15376095993993" width="78.61955338556497" class="icon-cg-0" data-fill-palette-color="accent" id="cg-0"><path d="M25.702 26v-5.176c0-2.466-1.894-4.476-4.3-4.709v-3.844c0-0.388-0.225-0.741-0.576-0.906l-5.083-2.378V6.799h1.044c0.553 0 1-0.447 1-1s-0.447-1-1-1h-1.044V4c0-0.553-0.447-1-1-1s-1 0.447-1 1v0.799h-1.043c-0.553 0-1 0.447-1 1s0.447 1 1 1h1.043v2.189l-5.082 2.378c-0.352 0.164-0.576 0.518-0.576 0.905v3.898c-2.159 0.449-3.787 2.365-3.787 4.655V26c0 0.553 0.447 1 1 1h6.873 5.658 6.873C25.255 27 25.702 26.553 25.702 26zM14.743 10.729l4.659 2.178v3.161h-9.317v-3.161L14.743 10.729zM13.171 25v-2.373c0-1.009 0.82-1.829 1.829-1.829s1.829 0.82 1.829 1.829V25H13.171zM23.702 25h-4.873v-2.373c0-2.111-1.718-3.829-3.829-3.829s-3.829 1.718-3.829 3.829V25H6.298v-4.176c0-1.52 1.236-2.756 2.756-2.756h11.892c1.52 0 2.756 1.236 2.756 2.756V25z" fill="#89939e" data-fill-palette-color="accent"></path><path d="M14.04 13.64c0.09 0.09 0.2 0.17 0.319 0.219 0.12 0.051 0.25 0.07 0.381 0.071 0.27 0 0.52-0.1 0.71-0.29 0.09-0.09 0.17-0.2 0.22-0.33 0.05-0.12 0.07-0.25 0.07-0.38s-0.021-0.26-0.07-0.38-0.13-0.23-0.22-0.321C15.359 12.13 15.25 12.06 15.13 12.01c-0.19-0.08-0.39-0.1-0.58-0.06-0.07 0.01-0.13 0.029-0.191 0.06-0.06 0.021-0.119 0.05-0.17 0.09-0.06 0.04-0.109 0.08-0.149 0.129-0.101 0.09-0.17 0.2-0.221 0.321-0.05 0.12-0.079 0.25-0.079 0.38s0.029 0.26 0.079 0.38C13.87 13.439 13.939 13.55 14.04 13.64z" fill="#89939e" data-fill-palette-color="accent"></path></svg></g></svg></g><g id="text-0"><path d="M16.821 68.765v0c-0.313 0.959-0.807 1.751-1.482 2.374-0.679 0.615-1.458 1.021-2.339 1.22-0.884 0.189-1.781 0.136-2.689-0.161v0c-0.87-0.284-1.593-0.752-2.168-1.404-0.575-0.652-0.955-1.402-1.142-2.25-0.183-0.84-0.134-1.689 0.146-2.547v0c0.278-0.851 0.732-1.564 1.363-2.139 0.637-0.572 1.364-0.957 2.18-1.155 0.823-0.195 1.67-0.151 2.54 0.134v0l0.677 0.221-1.964 6.013c-0.085 0.26-0.186 0.526-0.302 0.798-0.108 0.267-0.225 0.528-0.35 0.782v0c0.851 0.151 1.654 0.006 2.409-0.437 0.758-0.449 1.279-1.108 1.564-1.978v0c0.191-0.585 0.235-1.171 0.132-1.76-0.099-0.581-0.32-1.099-0.663-1.556v0l2.036 0.159c0.219 0.557 0.335 1.15 0.347 1.779 0.01 0.636-0.088 1.272-0.295 1.907zM10.151 70.331v0c0.092-0.582 0.229-1.152 0.411-1.711v0l0.995-3.05c0.075-0.229 0.154-0.449 0.237-0.66 0.092-0.216 0.183-0.432 0.275-0.649v0c-0.764-0.095-1.471 0.068-2.121 0.489-0.65 0.42-1.095 0.996-1.333 1.726v0c-0.243 0.743-0.208 1.475 0.105 2.197 0.311 0.727 0.788 1.28 1.431 1.658z" fill="#89939e" data-fill-palette-color="accent"></path><path d="M24.92 51.796v0c-0.487 0.807-1.123 1.426-1.907 1.859-0.79 0.429-1.63 0.644-2.52 0.644-0.891 0.001-1.734-0.238-2.529-0.718v0c-0.79-0.477-1.391-1.109-1.805-1.898-0.414-0.789-0.615-1.632-0.604-2.531 0.017-0.895 0.269-1.746 0.757-2.552v0c0.363-0.601 0.809-1.1 1.338-1.5 0.526-0.393 1.084-0.684 1.675-0.874v0l1.591 1.593c-0.596-0.047-1.191 0.066-1.785 0.339-0.589 0.277-1.061 0.71-1.417 1.3v0c-0.325 0.538-0.489 1.102-0.495 1.692 0.001 0.594 0.144 1.152 0.429 1.676 0.279 0.52 0.685 0.941 1.218 1.261v0c0.526 0.318 1.088 0.481 1.683 0.49 0.602 0.012 1.163-0.122 1.683-0.401 0.526-0.276 0.951-0.683 1.275-1.221v0c0.356-0.589 0.522-1.207 0.499-1.854-0.023-0.647-0.206-1.229-0.549-1.748v0l2.159 0.671c0.107 0.611 0.11 1.241 0.007 1.889-0.106 0.654-0.34 1.282-0.703 1.883z" fill="#89939e" data-fill-palette-color="accent"></path><path d="M35.968 37.93v0c-0.651 0.682-1.405 1.148-2.265 1.4-0.864 0.247-1.731 0.274-2.6 0.082-0.87-0.192-1.64-0.609-2.312-1.251v0c-0.667-0.637-1.117-1.385-1.35-2.245-0.233-0.86-0.246-1.727-0.04-2.601 0.211-0.87 0.642-1.646 1.293-2.327v0c0.484-0.508 1.028-0.899 1.632-1.173 0.599-0.269 1.207-0.432 1.825-0.489v0l1.207 1.9c-0.571-0.176-1.177-0.195-1.816-0.057-0.635 0.142-1.19 0.463-1.666 0.961v0c-0.434 0.454-0.717 0.969-0.85 1.544-0.128 0.58-0.11 1.156 0.055 1.729 0.16 0.568 0.465 1.067 0.914 1.496v0c0.445 0.425 0.957 0.706 1.537 0.844 0.585 0.142 1.161 0.134 1.73-0.027 0.573-0.155 1.077-0.46 1.51-0.914v0c0.475-0.498 0.772-1.065 0.889-1.701 0.117-0.636 0.065-1.245-0.156-1.826v0l1.962 1.124c-0.028 0.62-0.163 1.235-0.404 1.846-0.246 0.616-0.611 1.177-1.095 1.685z" fill="#89939e" data-fill-palette-color="accent"></path><path d="M47.494 27.924l-1.41 1.027-9.118-12.508 1.41-1.027z" fill="#89939e" data-fill-palette-color="accent"></path><path d="M61.141 20.771v0c-0.919 0.417-1.836 0.588-2.751 0.511-0.912-0.085-1.738-0.385-2.479-0.9-0.737-0.524-1.303-1.221-1.698-2.092v0c-0.379-0.834-0.522-1.683-0.43-2.546 0.092-0.864 0.388-1.651 0.887-2.363 0.496-0.702 1.155-1.24 1.976-1.613v0c0.815-0.37 1.648-0.517 2.498-0.44 0.852 0.083 1.627 0.359 2.324 0.827 0.7 0.475 1.239 1.129 1.618 1.963v0l0.294 0.648-5.76 2.616c-0.249 0.113-0.514 0.219-0.792 0.315-0.27 0.101-0.541 0.191-0.813 0.27v0c0.463 0.729 1.113 1.223 1.95 1.482 0.843 0.256 1.681 0.195 2.515-0.184v0c0.56-0.254 1.022-0.618 1.386-1.092 0.361-0.465 0.594-0.978 0.7-1.539v0l1.258 1.608c-0.262 0.538-0.622 1.024-1.077 1.458-0.462 0.437-0.997 0.794-1.606 1.071zM55.48 16.911v0c0.491-0.326 1.004-0.61 1.539-0.853v0l2.921-1.326c0.219-0.099 0.435-0.19 0.648-0.272 0.221-0.078 0.443-0.157 0.664-0.236v0c-0.446-0.627-1.044-1.038-1.794-1.233-0.749-0.196-1.474-0.134-2.173 0.183v0c-0.712 0.323-1.228 0.844-1.549 1.562-0.326 0.721-0.412 1.446-0.256 2.175z" fill="#89939e" data-fill-palette-color="accent"></path><path d="M77.274 15.594v0c-0.483 0.104-1.023 0.125-1.617 0.061-0.588-0.064-1.128-0.269-1.62-0.614v0l0.069-1.964c0.401 0.433 0.865 0.743 1.39 0.931 0.526 0.187 1.05 0.225 1.573 0.112v0c0.503-0.109 0.856-0.311 1.059-0.608 0.195-0.302 0.253-0.632 0.175-0.992v0c-0.089-0.412-0.288-0.683-0.596-0.815-0.309-0.132-0.575-0.211-0.8-0.237v0l-1.38-0.215c-0.248-0.042-0.556-0.119-0.921-0.232-0.368-0.119-0.71-0.325-1.026-0.62-0.316-0.294-0.535-0.719-0.655-1.274v0c-0.109-0.503-0.088-0.993 0.063-1.469 0.151-0.47 0.419-0.877 0.803-1.22 0.392-0.338 0.889-0.571 1.49-0.701v0c0.47-0.102 0.981-0.126 1.532-0.074 0.553 0.058 1.049 0.249 1.488 0.571v0l-0.069 1.964c-0.355-0.409-0.774-0.705-1.258-0.888-0.489-0.175-0.965-0.212-1.429-0.112v0c-0.431 0.093-0.745 0.287-0.941 0.583-0.196 0.295-0.26 0.6-0.193 0.913v0c0.054 0.248 0.187 0.455 0.401 0.621 0.214 0.166 0.5 0.275 0.86 0.327v0l1.38 0.215c0.254 0.034 0.571 0.109 0.951 0.226 0.379 0.11 0.741 0.315 1.087 0.616 0.339 0.303 0.574 0.758 0.705 1.366v0c0.183 0.849 0.035 1.603-0.446 2.26-0.482 0.651-1.173 1.074-2.075 1.269z" fill="#89939e" data-fill-palette-color="accent"></path><path d="M92.461 13.701l-1.743 0.068-0.376-9.667 1.743-0.068zM91.146 2.325v0c-0.321 0.012-0.599-0.09-0.835-0.309-0.236-0.212-0.36-0.481-0.372-0.808v0c-0.013-0.334 0.09-0.615 0.308-0.844 0.219-0.229 0.488-0.35 0.809-0.363v0c0.334-0.013 0.615 0.086 0.844 0.298 0.229 0.212 0.35 0.485 0.363 0.819v0c0.013 0.327-0.087 0.605-0.299 0.834-0.212 0.236-0.484 0.36-0.818 0.373z" fill="#89939e" data-fill-palette-color="accent"></path><path d="M107.353 15.171v0c-0.871-0.142-1.629-0.493-2.277-1.052-0.653-0.56-1.134-1.245-1.442-2.054-0.307-0.815-0.387-1.675-0.239-2.578v0c0.146-0.897 0.495-1.683 1.045-2.359 0.55-0.675 1.224-1.171 2.021-1.488 0.791-0.325 1.622-0.416 2.492-0.274v0c0.66 0.108 1.256 0.33 1.791 0.668 0.541 0.339 0.986 0.76 1.337 1.265v0l0.205-1.257 1.593 0.26-1.558 9.548-1.593-0.26 0.205-1.256c-0.491 0.353-1.047 0.608-1.669 0.763-0.615 0.157-1.252 0.182-1.911 0.074zM107.825 13.643v0c0.607 0.099 1.182 0.037 1.727-0.185 0.543-0.216 1.001-0.554 1.375-1.015 0.372-0.454 0.609-0.991 0.709-1.611v0c0.1-0.613 0.046-1.194-0.162-1.743-0.207-0.555-0.534-1.025-0.979-1.409-0.446-0.378-0.973-0.616-1.579-0.715v0c-0.6-0.098-1.172-0.039-1.715 0.177-0.544 0.223-1.003 0.564-1.376 1.025-0.372 0.454-0.608 0.988-0.709 1.601v0c-0.101 0.62-0.048 1.204 0.161 1.753 0.207 0.555 0.534 1.022 0.98 1.399 0.445 0.384 0.968 0.625 1.568 0.723z" fill="#89939e" data-fill-palette-color="accent"></path><path d="M137.791 27.199v0c-0.854-0.538-1.501-1.21-1.941-2.016-0.431-0.808-0.634-1.664-0.611-2.566 0.032-0.904 0.303-1.76 0.813-2.568v0c0.488-0.775 1.118-1.361 1.89-1.76 0.772-0.398 1.593-0.584 2.461-0.558 0.859 0.028 1.671 0.282 2.434 0.763v0c0.758 0.477 1.338 1.092 1.741 1.844 0.4 0.757 0.595 1.556 0.588 2.396-0.012 0.846-0.261 1.656-0.75 2.431v0l-0.379 0.602-5.352-3.372c-0.232-0.146-0.465-0.309-0.7-0.488-0.232-0.17-0.457-0.347-0.673-0.531v0c-0.354 0.788-0.409 1.602-0.165 2.444 0.25 0.845 0.762 1.511 1.537 1.999v0c0.52 0.328 1.078 0.514 1.675 0.558 0.587 0.046 1.144-0.042 1.67-0.263v0l-0.651 1.936c-0.593 0.076-1.197 0.044-1.81-0.098-0.619-0.145-1.212-0.396-1.777-0.753zM137.901 20.349v0c0.542 0.231 1.062 0.503 1.559 0.816v0l2.714 1.71c0.204 0.128 0.398 0.259 0.583 0.392 0.187 0.142 0.374 0.283 0.562 0.425v0c0.278-0.717 0.293-1.443 0.044-2.177-0.249-0.733-0.698-1.305-1.349-1.714v0c-0.662-0.417-1.38-0.562-2.156-0.434-0.781 0.124-1.434 0.451-1.957 0.982z" fill="#89939e" data-fill-palette-color="accent"></path><path d="M152.048 38.945v0c-0.617-0.631-1.02-1.363-1.209-2.197-0.194-0.839-0.175-1.675 0.056-2.509 0.236-0.839 0.682-1.578 1.337-2.219v0c0.65-0.635 1.397-1.062 2.24-1.279 0.844-0.217 1.68-0.217 2.51 0 0.829 0.208 1.553 0.627 2.169 1.258v0c0.467 0.478 0.816 1.011 1.045 1.599 0.234 0.593 0.343 1.197 0.328 1.812v0l0.91-0.89 1.128 1.154-6.916 6.763-1.129-1.154 0.91-0.89c-0.605-0.007-1.204-0.132-1.796-0.374-0.588-0.238-1.116-0.596-1.583-1.074zM153.335 37.995v0c0.43 0.44 0.93 0.731 1.5 0.874 0.565 0.148 1.135 0.147 1.708-0.002 0.569-0.145 1.078-0.437 1.527-0.876v0c0.444-0.435 0.745-0.935 0.903-1.5 0.162-0.57 0.178-1.142 0.048-1.715-0.135-0.569-0.418-1.073-0.848-1.512v0c-0.425-0.435-0.921-0.726-1.486-0.875-0.57-0.143-1.142-0.14-1.716 0.009-0.569 0.145-1.075 0.435-1.52 0.87v0c-0.449 0.439-0.753 0.942-0.91 1.507-0.162 0.57-0.176 1.139-0.04 1.708 0.131 0.573 0.409 1.077 0.834 1.512z" fill="#89939e" data-fill-palette-color="accent"></path><path d="M163.096 53.364v0c-0.259-0.421-0.458-0.923-0.597-1.505-0.135-0.576-0.121-1.153 0.041-1.732v0l1.874-0.588c-0.275 0.522-0.413 1.063-0.415 1.621-0.002 0.558 0.138 1.065 0.418 1.52v0c0.27 0.438 0.578 0.704 0.925 0.796 0.349 0.083 0.681 0.028 0.994-0.164v0c0.359-0.221 0.549-0.498 0.57-0.833 0.021-0.335 0.007-0.613-0.042-0.834v0l-0.256-1.372c-0.043-0.248-0.072-0.564-0.088-0.947-0.01-0.386 0.071-0.777 0.243-1.173 0.172-0.396 0.5-0.743 0.984-1.041v0c0.438-0.27 0.907-0.413 1.406-0.431 0.494-0.014 0.966 0.104 1.418 0.352 0.449 0.257 0.834 0.648 1.156 1.172v0c0.252 0.41 0.446 0.883 0.58 1.421 0.129 0.541 0.114 1.072-0.044 1.592v0l-1.874 0.589c0.268-0.471 0.407-0.965 0.418-1.482 0.002-0.519-0.121-0.981-0.369-1.385v0c-0.231-0.376-0.519-0.607-0.863-0.694-0.344-0.087-0.652-0.046-0.925 0.123v0c-0.216 0.133-0.367 0.328-0.453 0.584-0.085 0.257-0.093 0.563-0.022 0.92v0l0.256 1.373c0.052 0.25 0.087 0.574 0.104 0.972 0.023 0.394-0.051 0.804-0.22 1.23-0.173 0.42-0.524 0.793-1.053 1.119v0c-0.74 0.455-1.5 0.566-2.28 0.332-0.774-0.238-1.403-0.749-1.886-1.535z" fill="#89939e" data-fill-palette-color="accent"></path><path d="M170.489 69.68v0c-0.332-0.953-0.417-1.882-0.258-2.787 0.168-0.9 0.542-1.696 1.123-2.386 0.589-0.686 1.335-1.186 2.238-1.5v0c0.865-0.301 1.723-0.366 2.575-0.195 0.852 0.171 1.609 0.537 2.272 1.099 0.654 0.558 1.129 1.263 1.425 2.115v0c0.294 0.846 0.364 1.688 0.21 2.528-0.16 0.841-0.506 1.588-1.036 2.239-0.537 0.654-1.238 1.131-2.102 1.431v0l-0.673 0.234-2.078-5.975c-0.09-0.259-0.171-0.531-0.242-0.818-0.075-0.278-0.14-0.556-0.194-0.834v0c-0.768 0.395-1.32 0.997-1.654 1.806-0.332 0.816-0.347 1.656-0.047 2.521v0c0.202 0.581 0.522 1.074 0.961 1.481 0.43 0.402 0.92 0.681 1.469 0.837v0l-1.716 1.107c-0.511-0.31-0.962-0.713-1.354-1.206-0.393-0.5-0.7-1.066-0.919-1.697zM174.85 64.395v0c0.279 0.518 0.516 1.055 0.708 1.611v0l1.054 3.03c0.079 0.227 0.15 0.45 0.212 0.669 0.058 0.228 0.116 0.455 0.173 0.683v0c0.665-0.387 1.129-0.945 1.393-1.673 0.263-0.728 0.269-1.456 0.016-2.182v0c-0.257-0.739-0.728-1.3-1.414-1.684-0.688-0.391-1.402-0.542-2.142-0.454z" fill="#89939e" data-fill-palette-color="accent"></path><path d="M7.18 125.483v0c-0.325-0.991-0.395-1.952-0.21-2.886 0.188-0.927 0.589-1.741 1.203-2.442 0.616-0.695 1.394-1.197 2.333-1.505v0c0.895-0.294 1.782-0.346 2.661-0.157 0.872 0.192 1.644 0.582 2.315 1.17 0.674 0.595 1.156 1.333 1.446 2.216v0c0.288 0.876 0.341 1.745 0.16 2.607-0.173 0.866-0.541 1.63-1.104 2.294-0.569 0.665-1.302 1.145-2.197 1.439v0l-0.695 0.228-2.037-6.2c-0.09-0.273-0.169-0.557-0.237-0.851-0.075-0.292-0.135-0.582-0.18-0.869v0c-0.805 0.398-1.387 1.015-1.746 1.85-0.359 0.835-0.391 1.701-0.097 2.596v0c0.196 0.597 0.519 1.11 0.97 1.539 0.442 0.425 0.941 0.722 1.496 0.891v0l-1.787 1.114c-0.518-0.336-0.978-0.762-1.38-1.277-0.395-0.517-0.7-1.103-0.914-1.757zM11.774 120.101v0c0.283 0.54 0.519 1.099 0.71 1.677v0l1.035 3.152c0.075 0.229 0.141 0.46 0.197 0.695 0.062 0.233 0.118 0.468 0.168 0.705v0c0.695-0.39 1.183-0.959 1.466-1.706 0.289-0.749 0.31-1.498 0.063-2.247v0c-0.252-0.768-0.731-1.357-1.434-1.766-0.7-0.417-1.435-0.587-2.205-0.51z" fill="#89939e" data-fill-palette-color="accent"></path><path d="M16.309 144.578v0c-0.506-0.834-0.767-1.716-0.783-2.644-0.016-0.928 0.187-1.798 0.61-2.61 0.428-0.815 1.051-1.47 1.868-1.965v0c0.817-0.496 1.686-0.745 2.607-0.748 0.92-0.003 1.786 0.218 2.595 0.665 0.816 0.443 1.477 1.082 1.983 1.916v0c0.374 0.617 0.616 1.26 0.725 1.929 0.112 0.675 0.111 1.324-0.003 1.948v0l-2.223 0.703c0.332-0.522 0.513-1.12 0.541-1.794 0.035-0.678-0.132-1.319-0.499-1.925v0c-0.333-0.549-0.773-0.965-1.321-1.25-0.542-0.289-1.121-0.43-1.735-0.425-0.611 0.011-1.191 0.183-1.739 0.515v0c-0.543 0.329-0.96 0.762-1.253 1.299-0.294 0.546-0.439 1.126-0.433 1.74-0.001 0.618 0.166 1.201 0.498 1.75v0c0.367 0.606 0.854 1.053 1.459 1.343 0.605 0.289 1.225 0.402 1.859 0.338v0l-1.643 1.641c-0.612-0.184-1.191-0.481-1.737-0.892-0.543-0.405-1.002-0.917-1.376-1.534z" fill="#89939e" data-fill-palette-color="accent"></path><path d="M28.756 160.184v0c-0.675-0.705-1.121-1.508-1.338-2.411-0.217-0.903-0.208-1.796 0.029-2.68 0.241-0.888 0.707-1.663 1.396-2.324v0c0.69-0.661 1.484-1.093 2.382-1.296 0.898-0.203 1.79-0.175 2.678 0.085 0.893 0.255 1.677 0.735 2.352 1.44v0c0.499 0.521 0.875 1.096 1.126 1.725 0.256 0.634 0.396 1.268 0.421 1.903v0l-2.018 1.169c0.211-0.582 0.257-1.205 0.139-1.869-0.113-0.669-0.415-1.259-0.905-1.77v0c-0.444-0.463-0.964-0.774-1.561-0.934-0.592-0.164-1.187-0.177-1.786-0.038-0.594 0.143-1.122 0.437-1.586 0.881v0c-0.458 0.439-0.772 0.953-0.94 1.54-0.169 0.597-0.184 1.194-0.046 1.792 0.134 0.603 0.423 1.136 0.867 1.6v0c0.49 0.511 1.062 0.843 1.716 0.994 0.654 0.151 1.283 0.127 1.887-0.073v0l-1.247 1.958c-0.637-0.047-1.267-0.211-1.889-0.494-0.618-0.278-1.177-0.677-1.677-1.198z" fill="#89939e" data-fill-palette-color="accent"></path><path d="M41.832 170.991l-1.459-1.061 9.402-12.922 1.46 1.062z" fill="#89939e" data-fill-palette-color="accent"></path><path d="M56.989 179.44v0c-0.949-0.431-1.705-1.03-2.267-1.799-0.555-0.766-0.883-1.612-0.984-2.538-0.095-0.924 0.062-1.836 0.471-2.737v0c0.389-0.858 0.951-1.546 1.685-2.064 0.731-0.512 1.541-0.816 2.429-0.913 0.894-0.094 1.764 0.051 2.609 0.435v0c0.84 0.381 1.516 0.93 2.028 1.646 0.52 0.713 0.834 1.501 0.941 2.365 0.105 0.869-0.038 1.733-0.427 2.591v0l-0.302 0.667-5.943-2.696c-0.262-0.119-0.524-0.252-0.787-0.401-0.266-0.143-0.52-0.294-0.762-0.456v0c-0.252 0.862-0.191 1.708 0.181 2.537 0.372 0.829 0.988 1.439 1.846 1.828v0c0.572 0.26 1.168 0.369 1.789 0.327 0.612-0.038 1.168-0.204 1.668-0.498v0l-0.388 2.069c-0.598 0.154-1.223 0.205-1.875 0.152-0.648-0.059-1.286-0.231-1.912-0.515zM56.135 172.415v0c0.589 0.157 1.161 0.361 1.715 0.612v0l3.022 1.371c0.219 0.099 0.434 0.208 0.645 0.326 0.214 0.112 0.424 0.229 0.632 0.353v0c0.183-0.776 0.095-1.52-0.264-2.234-0.356-0.719-0.893-1.242-1.611-1.567v0c-0.736-0.334-1.493-0.38-2.271-0.139-0.781 0.233-1.403 0.659-1.868 1.278z" fill="#89939e" data-fill-palette-color="accent"></path><path d="M75.166 185.284v0c-0.503-0.108-1.018-0.319-1.546-0.63-0.528-0.312-0.949-0.735-1.265-1.268v0l0.904-1.815c0.191 0.574 0.492 1.063 0.904 1.466 0.414 0.397 0.891 0.654 1.434 0.771v0c0.523 0.113 0.942 0.07 1.258-0.129 0.316-0.198 0.514-0.481 0.593-0.846v0c0.092-0.425 0.018-0.765-0.221-1.022-0.232-0.255-0.448-0.442-0.648-0.56v0l-1.213-0.795c-0.214-0.149-0.471-0.354-0.77-0.617-0.292-0.261-0.524-0.598-0.695-1.011-0.171-0.413-0.194-0.907-0.07-1.482v0c0.111-0.516 0.338-0.966 0.681-1.351 0.341-0.378 0.768-0.645 1.28-0.8 0.506-0.158 1.069-0.169 1.69-0.036v0c0.49 0.106 0.981 0.304 1.472 0.594 0.493 0.284 0.881 0.672 1.164 1.164v0l-0.904 1.815c-0.159-0.533-0.43-0.988-0.813-1.365-0.384-0.377-0.814-0.616-1.291-0.719v0c-0.444-0.096-0.821-0.047-1.129 0.146-0.308 0.193-0.498 0.453-0.568 0.78v0c-0.056 0.261-0.021 0.512 0.104 0.751 0.131 0.247 0.356 0.473 0.674 0.678v0l1.216 0.786c0.217 0.136 0.481 0.34 0.791 0.611 0.311 0.272 0.563 0.624 0.757 1.056 0.189 0.424 0.216 0.949 0.08 1.576v0c-0.19 0.882-0.651 1.528-1.381 1.937-0.731 0.41-1.56 0.515-2.489 0.315z" fill="#89939e" data-fill-palette-color="accent"></path><path d="M92.038 187.002l-1.803-0.072 0.4-9.977 1.803 0.072zM91.608 175.196v0c-0.334-0.013-0.613-0.142-0.837-0.384-0.224-0.243-0.33-0.532-0.316-0.866v0c0.014-0.341 0.142-0.62 0.384-0.837 0.243-0.224 0.532-0.33 0.866-0.317v0c0.341 0.014 0.623 0.142 0.847 0.385 0.218 0.236 0.32 0.525 0.307 0.865v0c-0.013 0.334-0.138 0.613-0.375 0.838-0.243 0.224-0.535 0.33-0.876 0.316z" fill="#89939e" data-fill-palette-color="accent"></path><path d="M108.836 185.684v0c-0.897 0.145-1.756 0.05-2.574-0.286-0.819-0.335-1.511-0.849-2.077-1.543-0.566-0.694-0.923-1.506-1.074-2.437v0c-0.15-0.93-0.066-1.814 0.253-2.65 0.318-0.843 0.812-1.553 1.484-2.128 0.673-0.569 1.458-0.926 2.356-1.071v0c0.68-0.11 1.337-0.087 1.971 0.068 0.641 0.154 1.215 0.42 1.723 0.798v0l-0.209-1.296 1.643-0.266 1.59 9.858-1.643 0.265-0.209-1.296c-0.365 0.506-0.827 0.936-1.386 1.289-0.552 0.353-1.168 0.585-1.848 0.695zM108.805 184.044v0c0.627-0.101 1.169-0.351 1.626-0.75 0.458-0.392 0.797-0.873 1.016-1.444 0.219-0.57 0.278-1.172 0.176-1.805v0c-0.102-0.633-0.347-1.186-0.735-1.659-0.388-0.472-0.86-0.822-1.419-1.05-0.559-0.235-1.152-0.302-1.779-0.201v0c-0.62 0.1-1.162 0.35-1.625 0.75-0.458 0.392-0.793 0.873-1.007 1.442-0.219 0.57-0.278 1.172-0.175 1.806v0c0.102 0.633 0.347 1.186 0.734 1.658 0.381 0.473 0.851 0.824 1.409 1.052 0.566 0.234 1.159 0.3 1.779 0.201z" fill="#89939e" data-fill-palette-color="accent"></path><path d="M143.042 172.447v0c-0.884 0.553-1.801 0.851-2.752 0.894-0.945 0.04-1.831-0.155-2.659-0.582-0.822-0.432-1.495-1.067-2.02-1.905v0c-0.5-0.799-0.763-1.647-0.789-2.546-0.023-0.893 0.171-1.735 0.581-2.528 0.416-0.797 1.018-1.441 1.806-1.935v0c0.782-0.489 1.613-0.749 2.492-0.779 0.882-0.04 1.712 0.135 2.491 0.522 0.782 0.393 1.424 0.989 1.924 1.788v0l0.388 0.621-5.532 3.462c-0.244 0.152-0.5 0.297-0.769 0.434-0.266 0.143-0.533 0.27-0.801 0.383v0c0.579 0.686 1.317 1.103 2.214 1.252 0.897 0.148 1.745-0.028 2.544-0.528v0c0.533-0.333 0.953-0.77 1.261-1.31 0.306-0.531 0.475-1.086 0.507-1.665v0l1.51 1.467c-0.202 0.584-0.505 1.132-0.909 1.646-0.408 0.507-0.903 0.944-1.487 1.309zM136.716 169.275v0c0.457-0.404 0.943-0.767 1.458-1.09v0l2.813-1.761c0.204-0.128 0.413-0.247 0.628-0.357 0.211-0.116 0.426-0.227 0.644-0.332v0c-0.545-0.581-1.214-0.919-2.007-1.015-0.796-0.101-1.529 0.058-2.198 0.477v0c-0.685 0.429-1.142 1.034-1.37 1.815-0.238 0.779-0.227 1.534 0.032 2.263z" fill="#89939e" data-fill-palette-color="accent"></path><path d="M159.114 159.133v0c-0.637 0.648-1.385 1.08-2.243 1.295-0.858 0.215-1.721 0.211-2.588-0.013-0.867-0.224-1.636-0.666-2.308-1.327v0c-0.672-0.661-1.128-1.422-1.367-2.285-0.244-0.867-0.265-1.732-0.065-2.594 0.205-0.857 0.626-1.61 1.264-2.258v0c0.483-0.491 1.025-0.862 1.628-1.113 0.607-0.256 1.228-0.382 1.861-0.378v0l-0.937-0.92 1.167-1.187 7.121 6.999-1.167 1.187-0.936-0.921c0.005 0.624-0.112 1.244-0.353 1.861-0.236 0.612-0.595 1.163-1.077 1.654zM158.117 157.83v0c0.445-0.453 0.734-0.975 0.866-1.567 0.137-0.587 0.125-1.175-0.037-1.765-0.161-0.589-0.47-1.109-0.928-1.559v0c-0.458-0.45-0.982-0.75-1.574-0.901-0.592-0.151-1.18-0.153-1.765-0.006-0.59 0.142-1.107 0.44-1.552 0.893v0c-0.44 0.448-0.729 0.97-0.866 1.567-0.137 0.587-0.122 1.173 0.044 1.758 0.161 0.589 0.47 1.109 0.928 1.558v0c0.458 0.45 0.982 0.75 1.574 0.901 0.587 0.156 1.173 0.16 1.758 0.013 0.594-0.147 1.111-0.444 1.552-0.892z" fill="#89939e" data-fill-palette-color="accent"></path><path d="M171.701 143.032v0c-0.271 0.438-0.642 0.853-1.112 1.245-0.471 0.392-1.01 0.648-1.618 0.767v0l-1.407-1.46c0.605 0.013 1.167-0.107 1.685-0.36 0.512-0.257 0.915-0.621 1.206-1.093v0c0.281-0.455 0.381-0.864 0.3-1.228-0.081-0.364-0.281-0.645-0.598-0.843v0c-0.369-0.229-0.715-0.273-1.037-0.134-0.318 0.133-0.567 0.274-0.745 0.423v0l-1.156 0.877c-0.212 0.152-0.492 0.325-0.839 0.518-0.344 0.188-0.739 0.293-1.186 0.316-0.446 0.023-0.919-0.121-1.419-0.431v0c-0.449-0.278-0.797-0.642-1.044-1.094-0.241-0.448-0.35-0.94-0.326-1.474 0.021-0.529 0.199-1.064 0.533-1.604v0c0.264-0.426 0.615-0.822 1.053-1.188 0.433-0.369 0.928-0.605 1.486-0.707v0l1.408 1.46c-0.556-0.029-1.075 0.074-1.559 0.309-0.484 0.235-0.854 0.56-1.11 0.975v0c-0.239 0.386-0.319 0.757-0.241 1.113 0.079 0.355 0.26 0.621 0.545 0.797v0c0.227 0.141 0.475 0.192 0.742 0.153 0.277-0.041 0.565-0.177 0.866-0.408v0l1.146-0.882c0.2-0.159 0.481-0.339 0.842-0.541 0.36-0.201 0.776-0.321 1.248-0.359 0.462-0.036 0.966 0.115 1.512 0.452v0c0.767 0.475 1.222 1.125 1.363 1.951 0.141 0.826-0.038 1.643-0.538 2.45z" fill="#89939e" data-fill-palette-color="accent"></path><path d="M180.079 124.725v0c-0.345 0.984-0.875 1.79-1.591 2.416-0.713 0.621-1.527 1.023-2.441 1.206-0.912 0.176-1.834 0.101-2.767-0.227v0c-0.889-0.312-1.625-0.81-2.206-1.495-0.575-0.683-0.95-1.463-1.124-2.339-0.172-0.882-0.105-1.761 0.202-2.638v0c0.305-0.87 0.792-1.592 1.46-2.165 0.664-0.582 1.422-0.964 2.272-1.147 0.857-0.181 1.73-0.116 2.619 0.195v0l0.691 0.242-2.159 6.159c-0.095 0.271-0.205 0.544-0.33 0.82-0.118 0.277-0.247 0.544-0.386 0.799v0c0.881 0.174 1.718 0.039 2.511-0.405 0.793-0.444 1.346-1.111 1.657-2.001v0c0.208-0.593 0.264-1.197 0.167-1.811-0.092-0.606-0.307-1.145-0.644-1.617v0l2.096 0.203c0.207 0.582 0.312 1.2 0.317 1.854-0.002 0.651-0.116 1.301-0.344 1.951zM173.157 126.197v0c0.104-0.601 0.257-1.188 0.459-1.762v0l1.097-3.132c0.08-0.227 0.169-0.451 0.267-0.671 0.092-0.223 0.191-0.443 0.296-0.661v0c-0.789-0.114-1.522 0.04-2.201 0.461-0.685 0.419-1.158 1-1.419 1.744v0c-0.268 0.763-0.246 1.521 0.063 2.274 0.301 0.757 0.78 1.339 1.438 1.747z" fill="#89939e" data-fill-palette-color="accent"></path><path d="M1.351 95.44c0-3.266 2.647-5.913 5.913-5.913 3.266 0 5.913 2.647 5.913 5.913 0 3.266-2.647 5.913-5.913 5.913-3.266 0-5.913-2.647-5.913-5.913z" fill="#89939e" data-fill-palette-color="accent"></path><path d="M173.826 95.44c0-3.266 2.647-5.913 5.912-5.913 3.266 0 5.913 2.647 5.913 5.913 0 3.266-2.647 5.913-5.913 5.913-3.266 0-5.913-2.647-5.912-5.913z" fill="#89939e" data-fill-palette-color="accent"></path></g><g id="text-1"></g></svg></g></svg></g></svg></g><defs></defs></svg><rect width="395.52" height="120.65233215100969" fill="none" stroke="none" visibility="hidden"></rect></g></svg></g></svg>